<svg height="511pt" viewBox="0 0 511.9998 511" width="511pt" xmlns="http://www.w3.org/2000/svg"><path d="m512 492.496094c0 11.046875-8.953125 20-20 20h-471.996094c-11.046875 0-19.99999975-8.953125-19.99999975-20s8.95312475-20 19.99999975-20h216.269532l-.238282-85.621094-54.75-27.375-48.3125 48.308594c-6.390625 6.390625-16.390625 7.769531-24.328125 3.070312l-98.828125-58.503906c-9.507812-5.628906-12.652344-17.894531-7.023437-27.398438 5.625-9.503906 17.894531-12.648437 27.398437-7.023437l85.472656 50.601563 45.789063-45.792969 49.707031-82.769531-36.378906-36.320313-45.378906 30.152344c-9.195313 6.113281-21.609375 3.609375-27.722656-5.589844-6.113282-9.199219-3.613282-21.613281 5.585937-27.726563l59-39.203124c7.925781-5.265626 18.464844-4.21875 25.199219 2.503906l106.464844 106.289062 45.300781-30.234375c9.1875-6.132812 21.605469-3.652343 27.738281 5.535157s3.65625 21.605468-5.53125 27.738281l-58.933594 39.332031c-7.957031 5.308594-18.511718 4.230469-25.234375-2.480469l-40.941406-40.871093-34.722656 57.824218 59.339843 29.667969c6.757813 3.378906 11.035157 10.28125 11.054688 17.835937l.273438 98.054688h117.0625v-432h-274.667969v98.066406c0 11.046875-8.953125 20-20 20-11.042969 0-20-8.953125-20-20v-118.066406c0-11.046875 8.957031-20 20-20h314.667969c11.042968 0 20 8.953125 20 20v451.996094h58.664062c11.046875 0 20 8.953125 20 20zm-216.601562-294.535156c-32.75 0-59.394532-26.644532-59.394532-59.398438 0-32.75 26.644532-59.394531 59.394532-59.394531 32.753906 0 59.398437 26.644531 59.398437 59.394531 0 32.753906-26.644531 59.398438-59.398437 59.398438zm0-40c10.699218 0 19.398437-8.699219 19.398437-19.398438 0-10.695312-8.699219-19.394531-19.398437-19.394531-10.695313 0-19.394532 8.699219-19.394532 19.394531 0 10.699219 8.699219 19.398438 19.394532 19.398438zm0 0"/></svg>